<svg xmlns="http://www.w3.org/2000/svg" xmlns:xlink="http://www.w3.org/1999/xlink" viewBox="0 0 262.48 245.93"><defs><style>.cls-1,.cls-2,.cls-3,.cls-6{fill:none;}.cls-2,.cls-3{stroke:#57e09b;}.cls-2{stroke-width:2.16px;}.cls-3,.cls-6{stroke-linejoin:round;stroke-width:9.34px;}.cls-4{fill:#57e09b;}.cls-5{fill:url(#_10_lpi_30_);}.cls-6{stroke:#13314d;}.cls-7{fill:#13314d;}</style><pattern id="_10_lpi_30_" data-name="10 lpi 30%" width="72" height="72" patternTransform="translate(-37.27 14.96) rotate(-45) scale(0.78)" patternUnits="userSpaceOnUse" viewBox="0 0 72 72"><rect class="cls-1" width="72" height="72"/><line class="cls-2" x1="71.75" y1="68.4" x2="144.25" y2="68.4"/><line class="cls-2" x1="71.75" y1="54" x2="144.25" y2="54"/><line class="cls-2" x1="71.75" y1="39.6" x2="144.25" y2="39.6"/><line class="cls-2" x1="71.75" y1="25.2" x2="144.25" y2="25.2"/><line class="cls-2" x1="71.75" y1="10.8" x2="144.25" y2="10.8"/><line class="cls-2" x1="71.75" y1="61.2" x2="144.25" y2="61.2"/><line class="cls-2" x1="71.75" y1="46.8" x2="144.25" y2="46.8"/><line class="cls-2" x1="71.75" y1="32.4" x2="144.25" y2="32.4"/><line class="cls-2" x1="71.75" y1="18" x2="144.25" y2="18"/><line class="cls-2" x1="71.75" y1="3.6" x2="144.25" y2="3.6"/><line class="cls-2" x1="-0.25" y1="68.4" x2="72.25" y2="68.4"/><line class="cls-2" x1="-0.25" y1="54" x2="72.25" y2="54"/><line class="cls-2" x1="-0.25" y1="39.6" x2="72.25" y2="39.6"/><line class="cls-2" x1="-0.25" y1="25.2" x2="72.25" y2="25.2"/><line class="cls-2" x1="-0.25" y1="10.8" x2="72.25" y2="10.8"/><line class="cls-2" x1="-0.25" y1="61.2" x2="72.25" y2="61.2"/><line class="cls-2" x1="-0.25" y1="46.8" x2="72.25" y2="46.8"/><line class="cls-2" x1="-0.25" y1="32.4" x2="72.25" y2="32.4"/><line class="cls-2" x1="-0.25" y1="18" x2="72.25" y2="18"/><line class="cls-2" x1="-0.25" y1="3.6" x2="72.25" y2="3.6"/><line class="cls-2" x1="-72.25" y1="68.4" x2="0.25" y2="68.4"/><line class="cls-2" x1="-72.25" y1="54" x2="0.25" y2="54"/><line class="cls-2" x1="-72.25" y1="39.6" x2="0.25" y2="39.6"/><line class="cls-2" x1="-72.25" y1="25.2" x2="0.25" y2="25.2"/><line class="cls-2" x1="-72.25" y1="10.8" x2="0.25" y2="10.8"/><line class="cls-2" x1="-72.25" y1="61.2" x2="0.25" y2="61.2"/><line class="cls-2" x1="-72.25" y1="46.8" x2="0.25" y2="46.8"/><line class="cls-2" x1="-72.25" y1="32.4" x2="0.25" y2="32.4"/><line class="cls-2" x1="-72.25" y1="18" x2="0.25" y2="18"/><line class="cls-2" x1="-72.25" y1="3.6" x2="0.25" y2="3.6"/></pattern></defs><title>Layer 5</title><g id="Layer_2" data-name="Layer 2"><g id="Layer_5" data-name="Layer 5"><line class="cls-3" x1="135.91" y1="3.55" x2="135.91" y2="92.69"/><polygon class="cls-4" points="120.08 74.09 135.91 89.93 151.74 74.09 151.74 87.53 135.91 103.36 120.08 87.53 120.08 74.09"/><rect class="cls-5" x="58.1" y="126.21" width="146.28" height="74.98"/><rect class="cls-6" x="58.1" y="42.98" width="146.28" height="159.98"/><line class="cls-6" x1="251.81" y1="126.21" x2="10.67" y2="126.21"/><polygon class="cls-7" points="233.21 110.38 249.05 126.21 233.21 142.04 246.65 142.04 262.48 126.21 246.65 110.38 233.21 110.38"/><polygon class="cls-7" points="29.27 110.38 13.43 126.21 29.27 142.04 15.83 142.04 0 126.21 15.83 110.38 29.27 110.38"/><line class="cls-6" x1="131.24" y1="245.93" x2="131.24" y2="150.78"/><polygon class="cls-7" points="147.07 169.38 131.24 153.54 115.41 169.38 115.41 155.94 131.24 140.11 147.07 155.94 147.07 169.38"/><line class="cls-6" x1="131.24" x2="131.24" y2="95.15"/><polygon class="cls-7" points="115.41 76.55 131.24 92.39 147.07 76.55 147.07 89.99 131.24 105.82 115.41 89.99 115.41 76.55"/></g></g></svg>