<svg xmlns="http://www.w3.org/2000/svg" xmlns:xlink="http://www.w3.org/1999/xlink" viewBox="0 0 277.87 242"><defs><style>.cls-1,.cls-2{fill:none;}.cls-2{stroke:#57e09b;stroke-width:2.16px;}.cls-3{fill:#57e09b;}.cls-4{fill:#13314d;}.cls-5{fill:url(#_10_lpi_30_);}</style><pattern id="_10_lpi_30_" data-name="10 lpi 30%" width="72" height="72" patternTransform="translate(-264.31 -355.04) rotate(-22) scale(0.66)" patternUnits="userSpaceOnUse" viewBox="0 0 72 72"><rect class="cls-1" width="72" height="72"/><line class="cls-2" x1="71.75" y1="68.4" x2="144.25" y2="68.4"/><line class="cls-2" x1="71.75" y1="54" x2="144.25" y2="54"/><line class="cls-2" x1="71.75" y1="39.6" x2="144.25" y2="39.6"/><line class="cls-2" x1="71.75" y1="25.2" x2="144.25" y2="25.2"/><line class="cls-2" x1="71.75" y1="10.8" x2="144.25" y2="10.8"/><line class="cls-2" x1="71.75" y1="61.2" x2="144.25" y2="61.2"/><line class="cls-2" x1="71.75" y1="46.8" x2="144.25" y2="46.8"/><line class="cls-2" x1="71.75" y1="32.4" x2="144.25" y2="32.4"/><line class="cls-2" x1="71.75" y1="18" x2="144.25" y2="18"/><line class="cls-2" x1="71.75" y1="3.6" x2="144.25" y2="3.6"/><line class="cls-2" x1="-0.25" y1="68.4" x2="72.25" y2="68.4"/><line class="cls-2" x1="-0.25" y1="54" x2="72.25" y2="54"/><line class="cls-2" x1="-0.25" y1="39.6" x2="72.25" y2="39.6"/><line class="cls-2" x1="-0.25" y1="25.2" x2="72.25" y2="25.2"/><line class="cls-2" x1="-0.25" y1="10.8" x2="72.25" y2="10.8"/><line class="cls-2" x1="-0.25" y1="61.2" x2="72.25" y2="61.2"/><line class="cls-2" x1="-0.25" y1="46.8" x2="72.25" y2="46.8"/><line class="cls-2" x1="-0.25" y1="32.4" x2="72.25" y2="32.4"/><line class="cls-2" x1="-0.25" y1="18" x2="72.25" y2="18"/><line class="cls-2" x1="-0.25" y1="3.6" x2="72.25" y2="3.6"/><line class="cls-2" x1="-72.25" y1="68.4" x2="0.25" y2="68.4"/><line class="cls-2" x1="-72.25" y1="54" x2="0.25" y2="54"/><line class="cls-2" x1="-72.25" y1="39.6" x2="0.25" y2="39.6"/><line class="cls-2" x1="-72.25" y1="25.2" x2="0.25" y2="25.2"/><line class="cls-2" x1="-72.25" y1="10.8" x2="0.25" y2="10.8"/><line class="cls-2" x1="-72.25" y1="61.2" x2="0.25" y2="61.2"/><line class="cls-2" x1="-72.25" y1="46.8" x2="0.25" y2="46.8"/><line class="cls-2" x1="-72.25" y1="32.4" x2="0.25" y2="32.4"/><line class="cls-2" x1="-72.25" y1="18" x2="0.25" y2="18"/><line class="cls-2" x1="-72.25" y1="3.6" x2="0.25" y2="3.6"/></pattern></defs><title>Layer 7</title><g id="Layer_2" data-name="Layer 2"><g id="Layer_7" data-name="Layer 7"><path class="cls-3" d="M246.73,85c-.78-2-1.54-3.93-2.3-5.77a83.31,83.31,0,0,0,18.83-13c10.82-10,14.61-29.37,14.61-29.37S262.33,41.11,252.45,52c-6.21,6.86-8.89,16.34-10,22.44l-.67-1.5a127.22,127.22,0,0,0-12-20.8c6-4.58,14.74-12.13,17.68-19.05C252.07,22.23,250.52,2,250.52,2s-12.1,8.74-18.27,21.18c-3.36,6.78-5.57,16-6.89,23.07A148,148,0,0,0,206.28,26a34.1,34.1,0,0,0-16.43-8.17c-16.7-3.36-37,4.43-37,4.43s1,9.61,25.51,13.06c12.61,1.77,21.25,1.33,26.69.48,5.06,5.7,8.8,8.78,15.61,19.07a56.3,56.3,0,0,0-19.4-6c-16.68-2.11-37,8.41-37,8.41S175.49,67.56,195.82,66a158.27,158.27,0,0,0,29.25-5.12,133.21,133.21,0,0,1,8.7,16.44c2.45,6.65,5.63,12.29,7.82,18.38.34,4.32,2.93,10.33,3.34,13.32.35,2,3,9,3.3,12.43,1.37,4.86,2.21,8,2.24,8.12l12.79,2.73c-.26-.89-5.16-16.12-10.87-32.06C250.93,97,246.73,85,246.73,85Z"/><circle class="cls-3" cx="202.43" cy="106.5" r="7.5"/><path class="cls-4" d="M204.7,95.6a7.88,7.88,0,1,1-7.88,7.88A7.87,7.87,0,0,1,204.7,95.6ZM.25,202.69c1.18-4.63,5.89-6.78,7.61-7.42s8-3,29.15-7.43c6.68-1.41,25.53-3.59,39.59-5.11-12.6-8.23-26.38-18.1-33-25.74C29,140.18,14.46,120.91,11.2,86.6,7.82,51.2,24.67,30.94,25.39,30.09l4-4.66,4.41,4.23c.42.4,34.8,37.81,59.49,50.27L95.37,81C100,61.3,118.68,40.16,121,37.59l6.39-7.08L132,38.87c.14.26,14.22,25.91,23.89,45.26.73,1.45,1.45,2.94,2.18,4.46,3,6.21,6.06,12.59,10.9,18.33,9.7-21.64,18.65-32,31.93-33.94a24.09,24.09,0,0,1,3.54-.25c10.44,0,20.74,6.24,24.29,8.62l1.6.22a126.84,126.84,0,0,0-11.24-22.71A158.27,158.27,0,0,1,189.82,64c-20.33,1.58-31.57-8.69-31.57-8.69s20.34-10.52,37-8.41a56.3,56.3,0,0,1,19.4,6c-6.81-10.29-10.55-13.37-15.61-19.07-5.44.85-14.08,1.29-26.69-.48-24.55-3.45-25.51-13.06-25.51-13.06s20.29-7.79,37-4.43A34.1,34.1,0,0,1,200.28,24a148,148,0,0,1,19.08,20.26c1.32-7,3.53-16.29,6.89-23.07C232.42,8.74,244.52,0,244.52,0s1.55,20.23-3.08,31.12C238.5,38,229.75,45.59,223.76,50.17a127.22,127.22,0,0,1,12,20.8l.67,1.5c1.13-6.1,3.81-15.58,10-22.44,9.88-10.92,25.42-15.2,25.42-15.2s-3.79,19.39-14.61,29.37a83.31,83.31,0,0,1-18.83,13c.76,1.84,1.52,3.77,2.3,5.77l22.45,3.06L251,94.5a58.94,58.94,0,0,0-4.62,3.72c5.71,15.94,10.61,31.17,10.87,32.06l-12.79-2.73c-.05-.18-2.55-9.57-6-21.17-5.59,6.69-11,15.76-11.28,26.06-.83,30.63-5.49,50-16.09,66.72-12.33,19.52-41.92,32-59,34.62a54.75,54.75,0,0,1-8.23.59c-13.35,0-27.76-4.18-35.5-6.43-2-.57-4.19-1.22-4.71-1.3-2.1,0-9.81,2.71-18.28,7.62C78.87,238,68,242,60.72,242a14.52,14.52,0,0,1-3.64-.41,11.72,11.72,0,0,1-7.89-5.85,3.45,3.45,0,0,0-.93-1.2,8.35,8.35,0,0,0-2.13-.18c-1,0-2.15.07-3.24.14s-2.14.13-3.12.13c-1.32,0-4.82,0-7-2.85-.7-.93-1.42-2.13-2.25-3.52-.49-.81-1.05-1.74-1.56-2.52h-.6l-1.19,0c-1.46,0-5.33,0-7.8-3.09a18.82,18.82,0,0,1-2.2-3.71,8.68,8.68,0,0,0-1.69-2.7,18.11,18.11,0,0,0-2.23-.45c-2.94-.48-7.38-1.2-10.77-5A8.72,8.72,0,0,1,.25,202.69ZM145.82,94.46c-.7-1.45-1.38-2.88-2.08-4.27-6.06-12.13-13.9-26.81-18.86-36C118,63.21,109.3,76.69,108.07,87c18.47,8.38,30.24,11.71,41.82,15.58C148.4,99.83,147.08,97.09,145.82,94.46Zm-121,111.92A19.57,19.57,0,0,1,29,212.17s4.17-2.24,7.32-.1c1.73,1.16,4.08,6.29,4.08,6.29.57.87,1.14,1.82,1.61,2.6h0c1.17-.07,2.63-.16,4.1-.16a21.44,21.44,0,0,1,5.73.66l2.44.67,2,1.51a16.29,16.29,0,0,1,4.29,4.8h.09c4,0,12.5-2.82,17.84-5.91,1.67-1,16.56-9.45,25.08-9.45h1.08l1.06.17a57.92,57.92,0,0,1,6.37,1.67c7.09,2.06,20.29,5.9,31.7,5.9a40.82,40.82,0,0,0,6.18-.44c14.67-2.25,40.06-13.4,49.58-28.46,9.18-14.52,13.23-31.86,14-59.84.42-15.39,8.8-28.21,16.56-36.83l-3.28-.44-3.11-.43-2.61-1.75c-4.35-2.92-11.34-6.33-16.73-6.33a12,12,0,0,0-1.63.11c-5.65.81-12.29,4.82-22.53,28.46l-5.44,12.57-12.52-5.56a214.47,214.47,0,0,0-22.69-8.34A326.39,326.39,0,0,1,87.15,92.05c-19.24-9.71-42.4-31.64-56.06-45.58-3.75,7.61-8.1,20.77-6.38,38.84,2.89,30.34,15.42,47,29.12,62.78C56.49,151.16,64,158.25,84,171.37l31.78,20.76-37.75,4.08c-19.63,2.13-33.56,3.91-38.24,4.9-7.26,1.53-12.64,2.78-16.6,3.77Z"/><path class="cls-5" d="M145.82,94.46c-.7-1.45-1.38-2.88-2.08-4.27-6.06-12.13-13.9-26.81-18.86-36C118,63.21,109.3,76.69,108.07,87c18.47,8.38,30.24,11.71,41.82,15.58C148.4,99.83,147.08,97.09,145.82,94.46Z"/></g></g></svg>