<svg xmlns="http://www.w3.org/2000/svg" xmlns:xlink="http://www.w3.org/1999/xlink" viewBox="0 0 270.5 208.55"><defs><style>.cls-1,.cls-2{fill:none;}.cls-2{stroke:#57e09b;stroke-width:2.16px;}.cls-3{isolation:isolate;}.cls-4{mix-blend-mode:multiply;}.cls-5{fill:#57e09b;}.cls-6{fill:url(#_10_lpi_30_);}.cls-7{fill:#fff;}.cls-8{fill:#13314d;}</style><pattern id="_10_lpi_30_" data-name="10 lpi 30%" width="72" height="72" patternTransform="translate(64.96 -226.94) rotate(-45) scale(0.99)" patternUnits="userSpaceOnUse" viewBox="0 0 72 72"><rect class="cls-1" width="72" height="72"/><line class="cls-2" x1="71.75" y1="68.4" x2="144.25" y2="68.4"/><line class="cls-2" x1="71.75" y1="54" x2="144.25" y2="54"/><line class="cls-2" x1="71.75" y1="39.6" x2="144.25" y2="39.6"/><line class="cls-2" x1="71.75" y1="25.2" x2="144.25" y2="25.2"/><line class="cls-2" x1="71.75" y1="10.8" x2="144.25" y2="10.8"/><line class="cls-2" x1="71.75" y1="61.2" x2="144.25" y2="61.2"/><line class="cls-2" x1="71.75" y1="46.8" x2="144.25" y2="46.8"/><line class="cls-2" x1="71.75" y1="32.4" x2="144.25" y2="32.4"/><line class="cls-2" x1="71.75" y1="18" x2="144.25" y2="18"/><line class="cls-2" x1="71.75" y1="3.6" x2="144.25" y2="3.6"/><line class="cls-2" x1="-0.25" y1="68.4" x2="72.25" y2="68.4"/><line class="cls-2" x1="-0.25" y1="54" x2="72.25" y2="54"/><line class="cls-2" x1="-0.25" y1="39.6" x2="72.25" y2="39.6"/><line class="cls-2" x1="-0.25" y1="25.2" x2="72.25" y2="25.2"/><line class="cls-2" x1="-0.25" y1="10.8" x2="72.25" y2="10.8"/><line class="cls-2" x1="-0.25" y1="61.2" x2="72.25" y2="61.2"/><line class="cls-2" x1="-0.25" y1="46.8" x2="72.25" y2="46.8"/><line class="cls-2" x1="-0.25" y1="32.4" x2="72.25" y2="32.4"/><line class="cls-2" x1="-0.25" y1="18" x2="72.25" y2="18"/><line class="cls-2" x1="-0.25" y1="3.6" x2="72.25" y2="3.6"/><line class="cls-2" x1="-72.25" y1="68.4" x2="0.25" y2="68.4"/><line class="cls-2" x1="-72.25" y1="54" x2="0.25" y2="54"/><line class="cls-2" x1="-72.25" y1="39.6" x2="0.25" y2="39.6"/><line class="cls-2" x1="-72.25" y1="25.2" x2="0.25" y2="25.2"/><line class="cls-2" x1="-72.25" y1="10.8" x2="0.25" y2="10.8"/><line class="cls-2" x1="-72.25" y1="61.2" x2="0.25" y2="61.2"/><line class="cls-2" x1="-72.25" y1="46.8" x2="0.25" y2="46.8"/><line class="cls-2" x1="-72.25" y1="32.4" x2="0.25" y2="32.4"/><line class="cls-2" x1="-72.25" y1="18" x2="0.25" y2="18"/><line class="cls-2" x1="-72.25" y1="3.6" x2="0.25" y2="3.6"/></pattern></defs><title>Layer 3</title><g class="cls-3"><g id="Layer_2" data-name="Layer 2"><g id="Layer_3" data-name="Layer 3"><g class="cls-4"><path class="cls-5" d="M81.69,179.51a21.28,21.28,0,0,0,6.47-3.95c-1.75-1.47-1.33-1.7,1.32-.66A54,54,0,0,0,99.69,177c6.58.81,12.77.81,19.16-1.13,11.09-3.4,18.92-11.49,26.36-19.85,1.56-1.78,3-3.48,4.48-5.11a19.38,19.38,0,0,0,11.8.62c14.29-3.48,33.45-10.76,36-26.2a27.52,27.52,0,0,0,18.23,1.7c7.16-1.81,13.71-6.3,20.52-8.82s12.19-5.34,15.77-11.11a17.26,17.26,0,0,0,4.29-1.27,15.35,15.35,0,0,0,9.81-3.49l4.71,7.9a4.6,4.6,0,0,1-.74,5.65c-1.48,1.47-15,14.55-29.63,19.58-8.53,2.9-15.58,5.5-19.79,7.08,1.25,6.93.51,12.81-2.45,17.3-4.36,6.62-11.64,9-16.2,9.83-.27,4.68-1.71,12.11-7.32,16.1-5.18,3.64-12.85,5-17.45,5.53a24.3,24.3,0,0,1-10.94,11.42,16.5,16.5,0,0,1-7.79,1.78c-5.8,0-11.76-2.51-15.23-4.26-3.74,3.37-10.28,8.44-16.16,9.29a7.55,7.55,0,0,1-1,0c-5,0-18.66-7.93-34-19.58a51.48,51.48,0,0,1-12,6.15,4.38,4.38,0,0,1-1.63.31,4.81,4.81,0,0,1-2-.42,124.93,124.93,0,0,1-17-9.95c1.52-.93,3-1.86,4.52-2.79a21.07,21.07,0,0,0,5.1.58,18.27,18.27,0,0,0,12.38-4.29S81.65,179.55,81.69,179.51Z" transform="translate(-1 -0.99)"/></g><path class="cls-6" d="M216,35.51,256,103.2c-4.43,4-14.16,11.94-23.81,15.26-10.29,3.56-18.44,6.61-22.08,8l-1.54-1.31c-44.26-37.74-68.87-58.7-73.06-62.38a4.77,4.77,0,0,0-3.12-1.15,5.16,5.16,0,0,0-1.51.24,86.07,86.07,0,0,1-27.41,4.35c-12.93,0-24.52-2.89-29.51-7.36-1.46-1.34-2.14-2.57-2.1-3.87.16-2.73,3.13-5.9,4.79-7.28l54.43-21L183.09,43a4.67,4.67,0,0,0,2.57.08Z" transform="translate(-1 -0.99)"/><path class="cls-7" d="M96.62,155.37c-1.66-5.26-6.85-8.62-14.68-9.61a21.08,21.08,0,0,0-.36-15.23c-2.25-5.3-6.8-8.55-12.89-9.22.91-4.11.63-9.73-4.19-15.74a17.41,17.41,0,0,0-17.8-6.49c-1.15-4.78-4.47-8.42-9.5-10.36a20.83,20.83,0,0,0-7.47-1.43,21.52,21.52,0,0,0-12.66,4.35c-6.61-11.15-8.94-21.28-3.48-36.07A124.85,124.85,0,0,1,42.34,10.91,346.42,346.42,0,0,1,97.17,29.54L72.53,39a4.25,4.25,0,0,0-1.11.64c-.91.63-8.66,6.56-9.06,14.79-.16,2.93.63,7.32,5.22,11.43,6.81,6.13,20.22,9.77,35.84,9.77a97.75,97.75,0,0,0,27.85-4c13.29,11.39,70.17,59.85,74.52,63.57,1.07,5.14.67,9.21-1.11,11.94-2.92,4.43-8.66,5.7-11.51,6.09l-51.42-48.81a4.94,4.94,0,0,0-6.72.2,4.67,4.67,0,0,0-1.27,3.4,4.59,4.59,0,0,0,1.46,3.28l51.55,48.9c0,3.28-.68,8.86-3.52,10.87-3.56,2.54-9.93,3.64-13.77,4l-43-45.69a4.85,4.85,0,0,0-6.68-.24,4.77,4.77,0,0,0-.24,6.73l42.56,45.21a15.59,15.59,0,0,1-6.68,6.65,7.47,7.47,0,0,1-3.44.71c-5.34,0-11.63-3.52-13.22-4.47l-28-28.24a4.73,4.73,0,0,0-8.11,3.32l-5.38.2A13.55,13.55,0,0,0,96.62,155.37Z" transform="translate(-1 -0.99)"/><path class="cls-7" d="M102.63,159.13a4.69,4.69,0,0,0,1.38,3.36l25,25.16c-3.28,2.77-7.27,5.54-10,6-3.09-.47-14.44-7.24-27.93-17.4,3.44-4.79,6.45-11,6.17-17Z" transform="translate(-1 -0.99)"/><path class="cls-6" d="M87.6,158.22c1.58,5-4.47,14.08-8.35,17.13A42.11,42.11,0,0,1,71,179.86a129.68,129.68,0,0,1-14.91-9.1L76,154.94h.75C82.49,154.94,87,156.28,87.6,158.22Z" transform="translate(-1 -0.99)"/><path class="cls-6" d="M72.84,134.25c2.46,5.77-1.07,11.31-2,12.69L48.32,164.78A90,90,0,0,1,37.6,154.1L63.11,131a20.25,20.25,0,0,1,3.13-.31C71.34,130.65,72.41,133.26,72.84,134.25Z" transform="translate(-1 -0.99)"/><path class="cls-6" d="M57.1,111.5c4.9,6.13,1.3,10.76.4,11.75L32,146.39A152.38,152.38,0,0,1,23.28,131l21.6-21.12a12,12,0,0,1,5.85-1.74A7.86,7.86,0,0,1,57.1,111.5Z" transform="translate(-1 -0.99)"/><path class="cls-6" d="M37.6,103.67,19.05,121.83c-2.42-5.78-4-10.33-4.79-12.78,2-3.44,7.91-12.26,15.51-12.26a10.28,10.28,0,0,1,4,.79C37.6,99,37.84,102,37.6,103.67Z" transform="translate(-1 -0.99)"/><path class="cls-8" d="M56.07,170.76A129.68,129.68,0,0,0,71,179.86a42.11,42.11,0,0,0,8.27-4.51c3.88-3,9.93-12.11,8.35-17.13-.64-1.94-5.11-3.28-10.88-3.28H76Zm14.76-23.82c.94-1.38,4.47-6.92,2-12.69-.43-1-1.5-3.6-6.6-3.6a20.25,20.25,0,0,0-3.13.31L37.6,154.1a90,90,0,0,0,10.72,10.68ZM57.5,123.25c.9-1,4.5-5.62-.4-11.75a7.86,7.86,0,0,0-6.37-3.4,12,12,0,0,0-5.85,1.74L23.28,131A152.38,152.38,0,0,0,32,146.39Zm-38.45-1.42L37.6,103.67c.24-1.7,0-4.63-3.84-6.09a10.28,10.28,0,0,0-4-.79c-7.6,0-13.49,8.82-15.51,12.26C15.05,111.5,16.63,116.05,19.05,121.83Zm185.63,25.35c1.78-2.73,2.18-6.8,1.11-11.94-4.35-3.72-61.23-52.18-74.52-63.57a97.75,97.75,0,0,1-27.85,4c-15.62,0-29-3.64-35.84-9.77-4.59-4.11-5.38-8.5-5.22-11.43.4-8.23,8.15-14.16,9.06-14.79A4.25,4.25,0,0,1,72.53,39l24.64-9.49A346.42,346.42,0,0,0,42.34,10.91,124.85,124.85,0,0,0,13.59,55.57c-5.46,14.79-3.13,24.92,3.48,36.07a21.52,21.52,0,0,1,12.66-4.35,20.83,20.83,0,0,1,7.47,1.43c5,1.94,8.35,5.58,9.5,10.36a17.41,17.41,0,0,1,17.8,6.49c4.82,6,5.1,11.63,4.19,15.74,6.09.67,10.64,3.92,12.89,9.22a21.08,21.08,0,0,1,.36,15.23c7.83,1,13,4.35,14.68,9.61a13.55,13.55,0,0,1,.63,4c.28,5.93-2.73,12.18-6.17,17,13.49,10.16,24.84,16.93,27.93,17.4,2.69-.51,6.68-3.28,10-6l-25-25.16a4.69,4.69,0,0,1-1.38-3.36,4.73,4.73,0,0,1,8.11-3.32l28,28.24c1.59.95,7.88,4.47,13.22,4.47a7.47,7.47,0,0,0,3.44-.71,15.59,15.59,0,0,0,6.68-6.65L119.56,136a4.77,4.77,0,0,1,.24-6.73,4.85,4.85,0,0,1,6.68.24l43,45.69c3.84-.4,10.21-1.5,13.77-4,2.84-2,3.48-7.59,3.52-10.87l-51.55-48.9a4.59,4.59,0,0,1-1.46-3.28,4.67,4.67,0,0,1,1.27-3.4,4.94,4.94,0,0,1,6.72-.2l51.42,48.81C196,152.88,201.76,151.61,204.68,147.18Zm27.46-28.72c9.65-3.32,19.38-11.31,23.81-15.26L216,35.51l-30.34,7.6a4.67,4.67,0,0,1-2.57-.08L131,26.65l-54.43,21C74.94,49,72,52.21,71.81,54.94c0,1.3.64,2.53,2.1,3.87,5,4.47,16.58,7.36,29.51,7.36a86.07,86.07,0,0,0,27.41-4.35,5.16,5.16,0,0,1,1.51-.24,4.77,4.77,0,0,1,3.12,1.15c4.19,3.68,28.8,24.64,73.06,62.38l1.54,1.31C213.7,125.07,221.85,122,232.14,118.46Zm33.94-16.81a4.75,4.75,0,0,1-.75,5.78c-1.51,1.5-15.19,14.87-30.11,20-8.66,3-15.82,5.62-20.09,7.24,1.26,7.08.51,13.1-2.49,17.68-4.43,6.77-11.83,9.18-16.46,10-.28,4.79-1.74,12.38-7.44,16.46-5.26,3.72-13.05,5.14-17.72,5.65a24.77,24.77,0,0,1-11.11,11.67A16.65,16.65,0,0,1,152,198c-5.9,0-11.95-2.57-15.47-4.35-3.8,3.44-10.44,8.62-16.42,9.49a7.79,7.79,0,0,1-1,0c-5,0-18.94-8.1-34.53-20a52.3,52.3,0,0,1-12.18,6.29,4.36,4.36,0,0,1-1.66.31,4.73,4.73,0,0,1-2-.43c-1.15-.55-28.21-13.21-43.2-35.44a169,169,0,0,1-21-44.11,4.73,4.73,0,0,1,.31-3.28,44.25,44.25,0,0,1,5.23-8.11C1.52,84.72-2.47,71.63,4.73,52.25,16.4,20.76,37,2.88,37.88,2.13A4.7,4.7,0,0,1,42,1.1a338.12,338.12,0,0,1,67.68,23.62l19.5-7.52a4.68,4.68,0,0,1,3.13-.12l52.37,16.5,32.48-8.11a4.87,4.87,0,0,1,5.26,2.17Z" transform="translate(-1 -0.99)"/></g></g></g></svg>