<?xml version="1.0" encoding="utf-8"?>
<!-- Generator: Adobe Illustrator 22.0.1, SVG Export Plug-In . SVG Version: 6.00 Build 0)  -->
<svg version="1.1" id="Layer_1" xmlns="http://www.w3.org/2000/svg" xmlns:xlink="http://www.w3.org/1999/xlink" x="0px" y="0px"
	 viewBox="0 0 83.8 69.2" style="enable-background:new 0 0 83.8 69.2;" xml:space="preserve">
<style type="text/css">
	.st0{fill:none;}
	.st1{fill:none;stroke:#57E09B;stroke-width:2.16;}
	.st2{fill:#FFFFFF;}
	.st3{fill:#57E09B;}
	.st4{fill:#13314D;}
	.st5{fill:url(#SVGID_1_);}
	.st6{fill:url(#SVGID_2_);}
</style>
<pattern  y="69.2" width="72" height="72" patternUnits="userSpaceOnUse" id="_10_lpi_30_" viewBox="72.2 -72 72 72" style="overflow:visible;">
	<g>
		<rect x="72.2" y="-72" class="st0" width="72" height="72"/>
		<rect x="72.2" y="-72" class="st0" width="72" height="72"/>
		<line class="st1" x1="144" y1="-68.4" x2="216.5" y2="-68.4"/>
		<line class="st1" x1="144" y1="-54" x2="216.5" y2="-54"/>
		<line class="st1" x1="144" y1="-39.6" x2="216.5" y2="-39.6"/>
		<line class="st1" x1="144" y1="-25.2" x2="216.5" y2="-25.2"/>
		<line class="st1" x1="144" y1="-10.8" x2="216.5" y2="-10.8"/>
		<line class="st1" x1="144" y1="-61.2" x2="216.5" y2="-61.2"/>
		<line class="st1" x1="144" y1="-46.8" x2="216.5" y2="-46.8"/>
		<line class="st1" x1="144" y1="-32.4" x2="216.5" y2="-32.4"/>
		<line class="st1" x1="144" y1="-18" x2="216.5" y2="-18"/>
		<line class="st1" x1="144" y1="-3.6" x2="216.5" y2="-3.6"/>
		<line class="st1" x1="72" y1="-68.4" x2="144.5" y2="-68.4"/>
		<line class="st1" x1="72" y1="-54" x2="144.5" y2="-54"/>
		<line class="st1" x1="72" y1="-39.6" x2="144.5" y2="-39.6"/>
		<line class="st1" x1="72" y1="-25.2" x2="144.5" y2="-25.2"/>
		<line class="st1" x1="72" y1="-10.8" x2="144.5" y2="-10.8"/>
		<line class="st1" x1="72" y1="-61.2" x2="144.5" y2="-61.2"/>
		<line class="st1" x1="72" y1="-46.8" x2="144.5" y2="-46.8"/>
		<line class="st1" x1="72" y1="-32.4" x2="144.5" y2="-32.4"/>
		<line class="st1" x1="72" y1="-18" x2="144.5" y2="-18"/>
		<line class="st1" x1="72" y1="-3.6" x2="144.5" y2="-3.6"/>
		<line class="st1" x1="0" y1="-68.4" x2="72.5" y2="-68.4"/>
		<line class="st1" x1="0" y1="-54" x2="72.5" y2="-54"/>
		<line class="st1" x1="0" y1="-39.6" x2="72.5" y2="-39.6"/>
		<line class="st1" x1="0" y1="-25.2" x2="72.5" y2="-25.2"/>
		<line class="st1" x1="0" y1="-10.8" x2="72.5" y2="-10.8"/>
		<line class="st1" x1="0" y1="-61.2" x2="72.5" y2="-61.2"/>
		<line class="st1" x1="0" y1="-46.8" x2="72.5" y2="-46.8"/>
		<line class="st1" x1="0" y1="-32.4" x2="72.5" y2="-32.4"/>
		<line class="st1" x1="0" y1="-18" x2="72.5" y2="-18"/>
		<line class="st1" x1="0" y1="-3.6" x2="72.5" y2="-3.6"/>
	</g>
</pattern>
<title>Artboard 1</title>
<path class="st2" d="M77.3,45.1V60h-9.8c-1.9-5-5.8-9.1-7.5-14.2c-0.8-2.6-1.3-5.3-1.6-8c4.2,2.6,9.7,2.2,13.5-1
	C75.1,38.2,77.3,41.5,77.3,45.1z"/>
<path class="st2" d="M64.4,19.7c4.5,0,8.1,3.6,8.1,8.1s-3.6,8.1-8.1,8.1s-8.1-3.6-8.1-8.1l0,0C56.3,23.4,59.9,19.7,64.4,19.7z"/>
<path class="st3" d="M64.2,14.6c0,0.5-0.1,1.1-0.2,1.6c-3.5,0.1-6.7,1.7-8.8,4.5c-0.6-4-3-7.4-6.5-9.3c1.8-4.1,6.6-5.9,10.7-4.1
	C62.3,8.5,64.2,11.4,64.2,14.6z"/>
<path class="st2" d="M48.1,15.1c-3.2-1.5-7-1.5-10.2,0.1l-0.5-0.2c1.5-1.1,3.4-1.7,5.3-1.7C44.6,13.4,46.5,14,48.1,15.1z"/>
<path class="st3" d="M55.2,20.6c2.1-2.7,5.3-4.4,8.8-4.5c0.1-0.5,0.2-1.1,0.2-1.6c-0.1-4.5-3.7-8-8.2-8c-3.1,0-6,1.9-7.3,4.7
	C52.2,13.2,54.7,16.7,55.2,20.6z M56.3,27.8c0,4.5,3.6,8.1,8.1,8.1c4.5,0,8.1-3.6,8.1-8.1c0-4.5-3.6-8.1-8.1-8.1c0,0,0,0,0,0
	C59.9,19.7,56.3,23.4,56.3,27.8z M58.3,37.8c-0.3-2.3-0.9-4.5-1.9-6.6c-0.4-3.9-1.5-7.7-3.3-11.1c-1.1-2.1-2.9-3.8-5-4.9
	c-1.6-1.1-3.4-1.7-5.3-1.7c-1.9,0-3.8,0.6-5.3,1.7c-0.8-0.3-1.6-0.5-2.4-0.5c-0.3-0.5-0.7-0.9-1.1-1.2c0.8-0.8,1.7-1.4,2.7-2
	c-2-4-6.8-5.7-10.8-3.7c-1.8,0.9-3.3,2.4-4,4.3l0,0c-1.1-0.4-2.3-0.8-3.4-1.1c2.2-6,8.9-9.1,15-6.9c2.9,1.1,5.3,3.3,6.6,6.1
	c1.8-0.4,3.6-0.4,5.4,0c2.5-5.9,9.3-8.7,15.3-6.3c4.3,1.8,7.1,6,7.2,10.7c0,0.7-0.1,1.3-0.2,2c6.2,1.8,9.8,8.2,8,14.4
	c-0.3,1.1-0.7,2.1-1.3,3c4,2.2,6.5,6.4,6.6,11v18.6H67.4c0.6-1,0.6-2.3,0.2-3.4c0-0.1-0.1-0.1-0.1-0.2h9.8V45.1
	c0-3.6-2.1-6.8-5.4-8.2C68,40,62.6,40.4,58.3,37.8L58.3,37.8z"/>
<path class="st2" d="M30.8,12.3c-2.8,0.2-5.4,0.8-8.2,0L21.8,12l0,0c1.6-4.2,6.3-6.2,10.5-4.6c1.9,0.7,3.4,2.2,4.3,4
	c-1,0.6-1.9,1.2-2.7,2C33.1,12.6,31.9,12.2,30.8,12.3z"/>
<path class="st4" d="M79.3,46.4v18.5H3.1V46.4c0-4.6,2.5-8.8,6.6-11c-3.4-5.4-1.8-12.6,3.6-16.1c0.9-0.6,1.9-1,3-1.3
	c-0.1-0.5-0.1-1.1-0.1-1.7c0-6.4,5.2-11.7,11.7-11.7c4.6,0,8.7,2.7,10.6,6.8c1.8-0.4,3.6-0.4,5.4,0c2.5-5.9,9.3-8.7,15.3-6.3
	c4.3,1.8,7.1,6,7.2,10.7c0,0.7-0.1,1.3-0.2,2c6.2,1.7,9.8,8.2,8.1,14.3c-0.3,1.1-0.8,2.1-1.4,3.1C76.8,37.6,79.3,41.8,79.3,46.4z
	 M75.8,61.3V46.4c0-3.6-2.1-6.8-5.4-8.2c-4.3,3.6-10.5,3.6-14.8,0c-3.3,1.4-5.4,4.7-5.4,8.2v14.9H75.8z M71,29.1
	c0-4.5-3.6-8.1-8.1-8.1c-4.5,0-8.1,3.6-8.1,8.1s3.6,8.1,8.1,8.1c0,0,0,0,0,0C67.4,37.2,71,33.6,71,29.1z M62.5,17.5
	c0.1-0.5,0.2-1.1,0.2-1.6c0-4.5-3.6-8.1-8.1-8.1c-3.2,0-6.1,1.9-7.4,4.8c3.5,1.9,6,5.4,6.5,9.4C55.8,19.3,59.1,17.6,62.5,17.5z
	 M53,35.4c-0.9-1-2.1-1.7-3.4-2.2c-4.8,4.3-12,4.3-16.8,0c-1.3,0.5-2.4,1.2-3.4,2.2c4,2.2,6.5,6.4,6.5,11v14.9h10.5V46.4
	C46.5,41.8,49,37.6,53,35.4z M50.3,23.8c0-5-4.1-9.1-9.1-9.1c-5,0-9.1,4.1-9.1,9.1c0,5,4.1,9.1,9.1,9.1
	C46.2,32.9,50.3,28.8,50.3,23.8z M35.1,12.7c-2-4-6.8-5.7-10.8-3.7c-2.8,1.4-4.5,4.2-4.5,7.3c0,0.4,0,0.8,0.1,1.2
	c3.5,0.1,6.7,1.8,8.9,4.5C29.2,18.1,31.6,14.6,35.1,12.7z M32.4,61.3V46.4c0-3.6-2.1-6.8-5.4-8.2c-4.3,3.6-10.5,3.6-14.9,0
	c-3.3,1.4-5.4,4.7-5.4,8.2v14.9C6.7,61.3,32.4,61.3,32.4,61.3z M27.6,29.1c0-4.5-3.6-8.1-8.1-8.1c-4.5,0-8.1,3.6-8.1,8.1
	s3.6,8.1,8.1,8.1c0,0,0,0,0,0C24,37.2,27.6,33.6,27.6,29.1z"/>
<path class="st3" d="M75.8,46.4v14.9H50V46.4c0-3.6,2.1-6.8,5.4-8.2c4.3,3.6,10.5,3.6,14.9,0C73.6,39.6,75.7,42.8,75.8,46.4z"/>
<path class="st3" d="M62.9,21c4.5,0,8.1,3.6,8.1,8.1s-3.6,8.1-8.1,8.1c-4.5,0-8.1-3.6-8.1-8.1C54.8,24.7,58.4,21.1,62.9,21z"/>
<path class="st2" d="M62.7,15.9c0,0.5-0.1,1.1-0.2,1.6c-3.5,0.1-6.7,1.8-8.8,4.5c-0.6-4-3-7.4-6.5-9.3c1.8-4.1,6.6-5.9,10.7-4.1
	C60.8,9.8,62.7,12.7,62.7,15.9L62.7,15.9z"/>
<pattern  id="SVGID_1_" xlink:href="#_10_lpi_30_" patternTransform="matrix(0.1485 -0.1485 -0.1485 -0.1485 -8084.8257 -10114.8779)">
</pattern>
<path class="st5" d="M49.6,33.2c1.3,0.5,2.5,1.2,3.4,2.2c-4,2.2-6.5,6.4-6.5,11v14.9H35.9V46.4c0-4.6-2.5-8.8-6.5-11
	c0.9-1,2.1-1.7,3.4-2.2C37.6,37.5,44.8,37.5,49.6,33.2L49.6,33.2z"/>
<pattern  id="SVGID_2_" xlink:href="#_10_lpi_30_" patternTransform="matrix(0.1485 -0.1485 -0.1485 -0.1485 -8084.8257 -10114.8779)">
</pattern>
<path class="st6" d="M41.2,14.7c5,0,9.1,4.1,9.1,9.1s-4.1,9.1-9.1,9.1s-9.1-4.1-9.1-9.1c0,0,0,0,0,0C32.1,18.8,36.2,14.7,41.2,14.7z
	"/>
<path class="st3" d="M27.8,8.2c3.1,0,5.9,1.8,7.3,4.5c-3.5,1.9-5.8,5.4-6.4,9.3c-2.1-2.7-5.4-4.4-8.9-4.5c-0.1-0.4-0.1-0.8-0.1-1.2
	C19.7,11.8,23.3,8.2,27.8,8.2C27.8,8.2,27.8,8.2,27.8,8.2z"/>
<path class="st2" d="M32.4,46.4v14.9H6.7V46.4c0-3.6,2.1-6.8,5.4-8.2c4.3,3.6,10.5,3.6,14.9,0C30.2,39.6,32.3,42.8,32.4,46.4z"/>
<path class="st2" d="M19.5,21c4.5,0,8.1,3.6,8.1,8.1c0,4.5-3.6,8.1-8.1,8.1c-4.5,0-8.1-3.6-8.1-8.1C11.4,24.7,15,21.1,19.5,21z"/>
</svg>
