<svg xmlns="http://www.w3.org/2000/svg" xmlns:xlink="http://www.w3.org/1999/xlink" viewBox="0 0 283.57 234.09"><defs><style>.cls-1,.cls-2{fill:none;}.cls-2{stroke:#57e09b;stroke-width:2.16px;}.cls-3{isolation:isolate;}.cls-4,.cls-5{fill:#57e09b;}.cls-5{mix-blend-mode:multiply;}.cls-6{fill:url(#_10_lpi_30_);}.cls-7{fill:#13314d;}</style><pattern id="_10_lpi_30_" data-name="10 lpi 30%" width="72" height="72" patternTransform="translate(-0.3 19.76) rotate(-45) scale(0.8)" patternUnits="userSpaceOnUse" viewBox="0 0 72 72"><rect class="cls-1" width="72" height="72"/><line class="cls-2" x1="71.75" y1="68.4" x2="144.25" y2="68.4"/><line class="cls-2" x1="71.75" y1="54" x2="144.25" y2="54"/><line class="cls-2" x1="71.75" y1="39.6" x2="144.25" y2="39.6"/><line class="cls-2" x1="71.75" y1="25.2" x2="144.25" y2="25.2"/><line class="cls-2" x1="71.75" y1="10.8" x2="144.25" y2="10.8"/><line class="cls-2" x1="71.75" y1="61.2" x2="144.25" y2="61.2"/><line class="cls-2" x1="71.75" y1="46.8" x2="144.25" y2="46.8"/><line class="cls-2" x1="71.75" y1="32.4" x2="144.25" y2="32.4"/><line class="cls-2" x1="71.75" y1="18" x2="144.25" y2="18"/><line class="cls-2" x1="71.75" y1="3.6" x2="144.25" y2="3.6"/><line class="cls-2" x1="-0.25" y1="68.4" x2="72.25" y2="68.4"/><line class="cls-2" x1="-0.25" y1="54" x2="72.25" y2="54"/><line class="cls-2" x1="-0.25" y1="39.6" x2="72.25" y2="39.6"/><line class="cls-2" x1="-0.25" y1="25.2" x2="72.25" y2="25.2"/><line class="cls-2" x1="-0.25" y1="10.8" x2="72.25" y2="10.8"/><line class="cls-2" x1="-0.25" y1="61.2" x2="72.25" y2="61.2"/><line class="cls-2" x1="-0.25" y1="46.8" x2="72.25" y2="46.8"/><line class="cls-2" x1="-0.25" y1="32.4" x2="72.25" y2="32.4"/><line class="cls-2" x1="-0.25" y1="18" x2="72.25" y2="18"/><line class="cls-2" x1="-0.25" y1="3.6" x2="72.25" y2="3.6"/><line class="cls-2" x1="-72.25" y1="68.4" x2="0.25" y2="68.4"/><line class="cls-2" x1="-72.25" y1="54" x2="0.25" y2="54"/><line class="cls-2" x1="-72.25" y1="39.6" x2="0.25" y2="39.6"/><line class="cls-2" x1="-72.25" y1="25.2" x2="0.25" y2="25.2"/><line class="cls-2" x1="-72.25" y1="10.8" x2="0.25" y2="10.8"/><line class="cls-2" x1="-72.25" y1="61.2" x2="0.25" y2="61.2"/><line class="cls-2" x1="-72.25" y1="46.8" x2="0.25" y2="46.8"/><line class="cls-2" x1="-72.25" y1="32.4" x2="0.25" y2="32.4"/><line class="cls-2" x1="-72.25" y1="18" x2="0.25" y2="18"/><line class="cls-2" x1="-72.25" y1="3.6" x2="0.25" y2="3.6"/></pattern></defs><title>Layer 4</title><g class="cls-3"><g id="Layer_2" data-name="Layer 2"><g id="Layer_4" data-name="Layer 4"><rect class="cls-4" x="95.61" y="213.13" width="119.11" height="20.96"/><circle class="cls-5" cx="152.08" cy="49.86" r="16.84"/><path class="cls-6" d="M185.35,130.75h85.53a51,51,0,0,1-85.53,0Z" transform="translate(-0.8 -0.79)"/><path class="cls-7" d="M57.06,164.11A61.27,61.27,0,0,1,1.47,128.38v0c-.1-.23-.22-.42-.32-.61a2.32,2.32,0,0,1-.06-.45,4.2,4.2,0,0,1-.29-1.57,5.24,5.24,0,0,1,0-.7,4.72,4.72,0,0,1,.58-1.73c.06-.12.06-.25.12-.38l.07-.06s0-.07,0-.07L52.9,50a2.07,2.07,0,0,0,.32-.28,4.4,4.4,0,0,1,.61-.61c.13-.1.16-.23.29-.32l.16-.07c.16-.09.32-.16.44-.22.29-.13.55-.22.8-.32s.39-.16.58-.22h.54a1.36,1.36,0,0,1,.42-.1H119A24.25,24.25,0,0,1,137.5,29.29V5.88a5.07,5.07,0,1,1,10.14,0V29.29a24.2,24.2,0,0,1,18.52,18.52h62a1.6,1.6,0,0,1,.42.1,1.9,1.9,0,0,1,1.09.22,3.34,3.34,0,0,1,.8.29l.48.25c.06,0,.09,0,.12.07s.19.22.32.32a4.4,4.4,0,0,1,.61.61,2.67,2.67,0,0,0,.32.28l51.27,72.8a.21.21,0,0,0,0,.13.15.15,0,0,0,.07,0,1.2,1.2,0,0,1,.09.35,4.41,4.41,0,0,1,.61,1.76,5,5,0,0,1,0,.67,4.74,4.74,0,0,1-.28,1.63c0,.13,0,.29-.07.42s-.22.38-.32.58c0,0,0,0,0,.06a61.06,61.06,0,0,1-111.11,0s0,0,0-.06c-.09-.2-.22-.39-.32-.58a2,2,0,0,0-.06-.42,5.56,5.56,0,0,1-.26-1.63,5,5,0,0,1,0-.67,5.51,5.51,0,0,1,.61-1.79c.07-.1,0-.22.13-.32l0,0s0-.1.07-.1L218.36,58h-52.2a24.2,24.2,0,0,1-18.52,18.52v123h54.85a5.06,5.06,0,0,1,5.06,5.05v18.2a5.07,5.07,0,0,1-5.06,5.09H82.68a5.07,5.07,0,0,1-5.05-5.09v-18.2a5.06,5.06,0,0,1,5.05-5.05h54.85v-123A24.17,24.17,0,0,1,119,58H66.81l45.65,64.83s0,.07.06.1a0,0,0,0,0,0,0,.84.84,0,0,1,.1.29,5.24,5.24,0,0,1,.64,1.85,4.55,4.55,0,0,1,0,.64,5,5,0,0,1-.29,1.67,1.76,1.76,0,0,1-.06.38c-.07.19-.2.35-.29.54,0,0,0,.07-.07.1A61.16,61.16,0,0,1,57.06,164.11Zm213.82-33.36H185.35a51,51,0,0,0,85.53,0Zm-1.25-10.14L228.11,61.69,186.6,120.61Zm-72.22,97.07v-8.06H87.76v8.06ZM156.6,52.9a14,14,0,1,0-14,14A14,14,0,0,0,156.6,52.9ZM99.82,130.75H14.26a51,51,0,0,0,85.56,0Zm-1.24-10.14L57.06,61.69,15.54,120.61Z" transform="translate(-0.8 -0.79)"/><path class="cls-6" d="M14.26,130.75H99.82a51,51,0,0,1-85.56,0Z" transform="translate(-0.8 -0.79)"/></g></g></g></svg>