<svg xmlns="http://www.w3.org/2000/svg" viewBox="-435.5 7920 82.401 97.095"><defs><style>.a{fill:#57e09b;}</style></defs><path class="a" d="M94.454,40.66a.8.8,0,0,0,.024-.1.7.7,0,0,0,.017-.1.789.789,0,0,0,.005-.1c0-.035,0-.068,0-.1s-.009-.068-.015-.1-.013-.067-.023-.1-.021-.062-.032-.093a1.016,1.016,0,0,0-.048-.105c-.008-.014-.011-.028-.02-.042s-.02-.025-.027-.039c-.022-.033-.043-.065-.068-.1s-.042-.05-.065-.074a.973.973,0,0,0-.077-.072,1.038,1.038,0,0,0-.088-.066.414.414,0,0,0-.041-.032L71.186,25.5l-.012-.005-.011-.008L36.506,5.481l0,0,0,0c-.032-.018-.065-.028-.1-.043a.567.567,0,0,0-.213-.068c-.029-.007-.058-.015-.087-.02a1.081,1.081,0,0,0-.133,0c-.024,0-.049,0-.073,0a1.128,1.128,0,0,0-.133.023.692.692,0,0,0-.068.012,1.1,1.1,0,0,0-.126.047c-.022.009-.045.014-.066.025-.039.02-.075.046-.113.07-.022.014-.042.024-.063.039a1.043,1.043,0,0,0-.1.088c-.02.018-.04.035-.059.054a1.054,1.054,0,0,0-.074.1c-.016.023-.035.043-.05.068l0,0s0,0,0,0L12.235,46.142a.962.962,0,0,0-.046.1c-.013.03-.029.06-.039.09a.888.888,0,0,0-.024.107c-.007.033-.017.066-.022.1s0,.068,0,.1,0,.068,0,.1.011.065.016.1.01.07.02.1.022.059.033.089.023.07.039.1.034.054.05.083a1.021,1.021,0,0,0,.059.092c.021.026.046.049.068.074a1.016,1.016,0,0,0,.074.079c.026.023.058.041.086.062a1.027,1.027,0,0,0,.086.063l4.944,2.854V81.358c0,.012,0,.023,0,.035a.994.994,0,0,0,.011.113.966.966,0,0,0,.016.1c.008.033.02.065.03.1s.023.066.037.1.032.059.048.088a.912.912,0,0,0,.054.088c.02.027.043.053.065.079s.046.052.071.076.05.041.075.063.061.047.093.067c.01.007.018.015.028.021l34.66,20.008h0c.014.009.028.012.042.02a1.114,1.114,0,0,0,.172.07l.067.022a1.02,1.02,0,0,0,.238.029l.01,0h0l.01,0a1.073,1.073,0,0,0,.238-.029l.067-.022a1.182,1.182,0,0,0,.172-.07c.014-.008.029-.011.043-.02h0l12.475-7.2a.264.264,0,0,0,.027-.022A.924.924,0,0,0,66.434,95c.025-.021.052-.04.076-.063s.047-.05.07-.076.045-.051.065-.078.037-.059.055-.089.034-.058.048-.088.024-.065.036-.1a.73.73,0,0,0,.03-.1.915.915,0,0,0,.016-.1.782.782,0,0,0,.012-.113c0-.012,0-.023,0-.034v-9.8l8.488,4.9,0,0a.306.306,0,0,0,.043.018,1.065,1.065,0,0,0,.171.071c.023.007.045.015.067.021a1.074,1.074,0,0,0,.238.03h.022a1.142,1.142,0,0,0,.238-.03c.023-.005.043-.014.066-.021a1.151,1.151,0,0,0,.173-.071.357.357,0,0,0,.042-.018l0,0L88.5,82.28a.268.268,0,0,0,.028-.021,1.13,1.13,0,0,0,.093-.067c.025-.022.052-.04.075-.063s.048-.05.071-.076.045-.052.065-.079a.914.914,0,0,0,.054-.088c.017-.029.034-.059.048-.088s.025-.066.037-.1A.67.67,0,0,0,89,81.6a.735.735,0,0,0,.017-.1c.005-.038.01-.075.012-.113,0-.012,0-.023,0-.035V44.122l4.944-2.854a1.123,1.123,0,0,0,.189-.14c.014-.013.025-.028.039-.042a.97.97,0,0,0,.126-.157c.007-.011.016-.018.023-.029s.013-.028.022-.043a.859.859,0,0,0,.048-.1A1,1,0,0,0,94.454,40.66ZM87.426,42.58a.19.19,0,0,0-.028.021,1.132,1.132,0,0,0-.093.067c-.025.021-.052.04-.075.062s-.048.05-.071.076a.9.9,0,0,0-.065.079c-.021.028-.037.059-.055.088s-.034.058-.048.089-.025.065-.036.1a.827.827,0,0,0-.03.1c-.008.033-.012.065-.016.1a1,1,0,0,0-.012.113c0,.012,0,.023,0,.035V80.737l-9.955,5.747V62.548c0-.022,0-.039-.005-.061a.8.8,0,0,0-.013-.113c-.005-.035-.014-.068-.023-.1s-.018-.066-.029-.1-.03-.072-.049-.108c-.009-.018-.014-.036-.024-.053a.3.3,0,0,0-.02-.027c-.022-.034-.045-.065-.068-.1a.826.826,0,0,0-.062-.074.943.943,0,0,0-.076-.071c-.025-.023-.052-.046-.078-.065s-.06-.037-.089-.055-.058-.034-.088-.048a1,1,0,0,0-.1-.037.973.973,0,0,0-.1-.029c-.032-.008-.067-.012-.1-.017a.93.93,0,0,0-.112-.011c-.013,0-.023,0-.036,0a.57.57,0,0,0-.062.007,1.045,1.045,0,0,0-.113.011c-.034.005-.068.014-.1.023s-.064.018-.1.029a1.059,1.059,0,0,0-.108.049c-.018.009-.037.014-.054.023l-10.09,5.826a.269.269,0,0,0-.028.021c-.032.022-.063.043-.093.067s-.051.04-.075.062-.048.051-.071.077a.755.755,0,0,0-.065.078.911.911,0,0,0-.054.088c-.017.029-.034.059-.048.088a.835.835,0,0,0-.037.1.782.782,0,0,0-.03.1c-.008.032-.011.065-.016.1a.947.947,0,0,0-.012.113c0,.013,0,.023,0,.035V93.544l-10.34,5.97v-36c0-.021-.007-.039-.007-.061a1.042,1.042,0,0,0-.012-.114q-.01-.051-.023-.1t-.029-.1a1.058,1.058,0,0,0-.049-.108c-.01-.018-.014-.036-.023-.053a.3.3,0,0,0-.021-.027c-.022-.033-.045-.065-.068-.1a.8.8,0,0,0-.062-.074A.666.666,0,0,0,54,62.713c-.026-.022-.051-.046-.079-.065a.921.921,0,0,0-.088-.055c-.028-.016-.058-.033-.088-.047a.908.908,0,0,0-.1-.038c-.032-.011-.063-.022-.095-.029s-.067-.012-.1-.017-.073-.01-.112-.011c-.012,0-.023,0-.036,0a.6.6,0,0,0-.062.007.8.8,0,0,0-.112.011c-.036.005-.07.014-.1.023s-.064.018-.1.029a1.058,1.058,0,0,0-.108.049c-.018.009-.037.014-.054.024l-2.081,1.2L71.012,27.9,91.341,40.314ZM14.617,46.272,36.371,7.87,69.178,26.812l-21.753,38.4ZM47.289,67.6h.005a1.021,1.021,0,0,0,.2.082.4.4,0,0,0,.06.023,1.038,1.038,0,0,0,.27.036,0,0,0,0,1,0,0,0,0,0,0,1,0,0,1.114,1.114,0,0,0,.278-.038c.03-.009.06-.025.09-.037a1.188,1.188,0,0,0,.159-.065l.005,0h0l3.875-2.238v34.15L19.711,80.74V51.681ZM66.847,68.99,74.8,64.4V86.487l-7.953-4.593Z" transform="translate(-447.599 7914.66)"/></svg>