<svg xmlns="http://www.w3.org/2000/svg" xmlns:xlink="http://www.w3.org/1999/xlink" viewBox="0 0 297.59 128.66"><defs><style>.cls-1,.cls-2,.cls-3,.cls-6{fill:none;}.cls-2,.cls-3{stroke:#57e09b;}.cls-2{stroke-width:2.16px;}.cls-3,.cls-6{stroke-miterlimit:10;stroke-width:7.87px;}.cls-4{fill:#57e09b;}.cls-5{fill:url(#_10_lpi_30_);}.cls-6{stroke:#13314d;}.cls-7{fill:url(#_10_lpi_30_3);}.cls-8{fill:url(#_10_lpi_30_5);}.cls-9{fill:#13314d;}</style><pattern id="_10_lpi_30_" data-name="10 lpi 30%" width="72" height="72" patternTransform="translate(-350.15 -320.06) rotate(-22) scale(0.66)" patternUnits="userSpaceOnUse" viewBox="0 0 72 72"><rect class="cls-1" width="72" height="72"/><line class="cls-2" x1="71.75" y1="68.4" x2="144.25" y2="68.4"/><line class="cls-2" x1="71.75" y1="54" x2="144.25" y2="54"/><line class="cls-2" x1="71.75" y1="39.6" x2="144.25" y2="39.6"/><line class="cls-2" x1="71.75" y1="25.2" x2="144.25" y2="25.2"/><line class="cls-2" x1="71.75" y1="10.8" x2="144.25" y2="10.8"/><line class="cls-2" x1="71.75" y1="61.2" x2="144.25" y2="61.2"/><line class="cls-2" x1="71.75" y1="46.8" x2="144.25" y2="46.8"/><line class="cls-2" x1="71.75" y1="32.4" x2="144.25" y2="32.4"/><line class="cls-2" x1="71.75" y1="18" x2="144.25" y2="18"/><line class="cls-2" x1="71.75" y1="3.6" x2="144.25" y2="3.6"/><line class="cls-2" x1="-0.25" y1="68.4" x2="72.25" y2="68.4"/><line class="cls-2" x1="-0.25" y1="54" x2="72.25" y2="54"/><line class="cls-2" x1="-0.25" y1="39.6" x2="72.25" y2="39.6"/><line class="cls-2" x1="-0.25" y1="25.2" x2="72.25" y2="25.2"/><line class="cls-2" x1="-0.25" y1="10.8" x2="72.25" y2="10.8"/><line class="cls-2" x1="-0.25" y1="61.2" x2="72.25" y2="61.2"/><line class="cls-2" x1="-0.25" y1="46.8" x2="72.25" y2="46.8"/><line class="cls-2" x1="-0.25" y1="32.4" x2="72.25" y2="32.4"/><line class="cls-2" x1="-0.25" y1="18" x2="72.25" y2="18"/><line class="cls-2" x1="-0.25" y1="3.6" x2="72.25" y2="3.6"/><line class="cls-2" x1="-72.25" y1="68.4" x2="0.25" y2="68.4"/><line class="cls-2" x1="-72.25" y1="54" x2="0.25" y2="54"/><line class="cls-2" x1="-72.25" y1="39.6" x2="0.25" y2="39.6"/><line class="cls-2" x1="-72.25" y1="25.2" x2="0.25" y2="25.2"/><line class="cls-2" x1="-72.25" y1="10.8" x2="0.25" y2="10.8"/><line class="cls-2" x1="-72.25" y1="61.2" x2="0.25" y2="61.2"/><line class="cls-2" x1="-72.25" y1="46.8" x2="0.25" y2="46.8"/><line class="cls-2" x1="-72.25" y1="32.4" x2="0.25" y2="32.4"/><line class="cls-2" x1="-72.25" y1="18" x2="0.25" y2="18"/><line class="cls-2" x1="-72.25" y1="3.6" x2="0.25" y2="3.6"/></pattern><pattern id="_10_lpi_30_3" data-name="10 lpi 30%" width="72" height="72" patternTransform="translate(-246.22 -320.06) rotate(-22) scale(0.66)" patternUnits="userSpaceOnUse" viewBox="0 0 72 72"><rect class="cls-1" width="72" height="72"/><line class="cls-2" x1="71.75" y1="68.4" x2="144.25" y2="68.4"/><line class="cls-2" x1="71.75" y1="54" x2="144.25" y2="54"/><line class="cls-2" x1="71.75" y1="39.6" x2="144.25" y2="39.6"/><line class="cls-2" x1="71.75" y1="25.2" x2="144.25" y2="25.2"/><line class="cls-2" x1="71.75" y1="10.8" x2="144.25" y2="10.8"/><line class="cls-2" x1="71.75" y1="61.2" x2="144.25" y2="61.2"/><line class="cls-2" x1="71.75" y1="46.8" x2="144.25" y2="46.8"/><line class="cls-2" x1="71.75" y1="32.4" x2="144.25" y2="32.4"/><line class="cls-2" x1="71.75" y1="18" x2="144.25" y2="18"/><line class="cls-2" x1="71.75" y1="3.6" x2="144.25" y2="3.6"/><line class="cls-2" x1="-0.25" y1="68.4" x2="72.25" y2="68.4"/><line class="cls-2" x1="-0.25" y1="54" x2="72.25" y2="54"/><line class="cls-2" x1="-0.25" y1="39.6" x2="72.25" y2="39.6"/><line class="cls-2" x1="-0.25" y1="25.2" x2="72.25" y2="25.2"/><line class="cls-2" x1="-0.25" y1="10.8" x2="72.25" y2="10.8"/><line class="cls-2" x1="-0.25" y1="61.2" x2="72.25" y2="61.2"/><line class="cls-2" x1="-0.25" y1="46.8" x2="72.25" y2="46.8"/><line class="cls-2" x1="-0.25" y1="32.4" x2="72.25" y2="32.4"/><line class="cls-2" x1="-0.25" y1="18" x2="72.25" y2="18"/><line class="cls-2" x1="-0.25" y1="3.6" x2="72.25" y2="3.6"/><line class="cls-2" x1="-72.25" y1="68.4" x2="0.25" y2="68.4"/><line class="cls-2" x1="-72.25" y1="54" x2="0.25" y2="54"/><line class="cls-2" x1="-72.25" y1="39.6" x2="0.25" y2="39.6"/><line class="cls-2" x1="-72.25" y1="25.2" x2="0.25" y2="25.2"/><line class="cls-2" x1="-72.25" y1="10.8" x2="0.25" y2="10.8"/><line class="cls-2" x1="-72.25" y1="61.2" x2="0.25" y2="61.2"/><line class="cls-2" x1="-72.25" y1="46.8" x2="0.25" y2="46.8"/><line class="cls-2" x1="-72.25" y1="32.4" x2="0.25" y2="32.4"/><line class="cls-2" x1="-72.25" y1="18" x2="0.25" y2="18"/><line class="cls-2" x1="-72.25" y1="3.6" x2="0.25" y2="3.6"/></pattern><pattern id="_10_lpi_30_5" data-name="10 lpi 30%" width="72" height="72" patternTransform="translate(-142.3 -320.06) rotate(-22) scale(0.66)" patternUnits="userSpaceOnUse" viewBox="0 0 72 72"><rect class="cls-1" width="72" height="72"/><line class="cls-2" x1="71.75" y1="68.4" x2="144.25" y2="68.4"/><line class="cls-2" x1="71.75" y1="54" x2="144.25" y2="54"/><line class="cls-2" x1="71.75" y1="39.6" x2="144.25" y2="39.6"/><line class="cls-2" x1="71.75" y1="25.2" x2="144.25" y2="25.2"/><line class="cls-2" x1="71.75" y1="10.8" x2="144.25" y2="10.8"/><line class="cls-2" x1="71.75" y1="61.2" x2="144.25" y2="61.2"/><line class="cls-2" x1="71.75" y1="46.8" x2="144.25" y2="46.8"/><line class="cls-2" x1="71.75" y1="32.4" x2="144.25" y2="32.4"/><line class="cls-2" x1="71.75" y1="18" x2="144.25" y2="18"/><line class="cls-2" x1="71.75" y1="3.6" x2="144.25" y2="3.6"/><line class="cls-2" x1="-0.25" y1="68.4" x2="72.25" y2="68.4"/><line class="cls-2" x1="-0.25" y1="54" x2="72.25" y2="54"/><line class="cls-2" x1="-0.25" y1="39.6" x2="72.25" y2="39.6"/><line class="cls-2" x1="-0.25" y1="25.2" x2="72.25" y2="25.2"/><line class="cls-2" x1="-0.25" y1="10.8" x2="72.25" y2="10.8"/><line class="cls-2" x1="-0.25" y1="61.2" x2="72.25" y2="61.2"/><line class="cls-2" x1="-0.25" y1="46.8" x2="72.25" y2="46.8"/><line class="cls-2" x1="-0.25" y1="32.4" x2="72.25" y2="32.4"/><line class="cls-2" x1="-0.25" y1="18" x2="72.25" y2="18"/><line class="cls-2" x1="-0.25" y1="3.6" x2="72.25" y2="3.6"/><line class="cls-2" x1="-72.25" y1="68.4" x2="0.25" y2="68.4"/><line class="cls-2" x1="-72.25" y1="54" x2="0.25" y2="54"/><line class="cls-2" x1="-72.25" y1="39.6" x2="0.25" y2="39.6"/><line class="cls-2" x1="-72.25" y1="25.2" x2="0.25" y2="25.2"/><line class="cls-2" x1="-72.25" y1="10.8" x2="0.25" y2="10.8"/><line class="cls-2" x1="-72.25" y1="61.2" x2="0.25" y2="61.2"/><line class="cls-2" x1="-72.25" y1="46.8" x2="0.25" y2="46.8"/><line class="cls-2" x1="-72.25" y1="32.4" x2="0.25" y2="32.4"/><line class="cls-2" x1="-72.25" y1="18" x2="0.25" y2="18"/><line class="cls-2" x1="-72.25" y1="3.6" x2="0.25" y2="3.6"/></pattern></defs><title>Layer 2</title><g id="Layer_2" data-name="Layer 2"><g id="Layer_2-2" data-name="Layer 2"><path class="cls-3" d="M55,34.53c.59-1,14.19-23.5,40.38-23.59,15.11,0,26.05,7.38,32.31,13.21"/><polygon class="cls-4" points="107.18 21.54 126.04 22.45 126.94 3.59 134.56 11.99 133.65 30.84 114.8 29.93 107.18 21.54"/><path class="cls-3" d="M156.14,34.53c.59-1,14.19-23.5,40.38-23.59,15.11,0,26,7.38,32.31,13.21"/><polygon class="cls-4" points="208.36 21.54 227.22 22.45 228.13 3.59 235.75 11.99 234.84 30.84 215.98 29.93 208.36 21.54"/><path class="cls-5" d="M17.92,114.6A40.94,40.94,0,0,1,67.76,49.85Z"/><circle class="cls-6" cx="44.87" cy="83.79" r="40.93"/><path class="cls-7" d="M121.85,114.6a40.93,40.93,0,0,1,49.83-64.75Z"/><circle class="cls-6" cx="148.79" cy="83.79" r="40.93"/><path class="cls-8" d="M225.77,114.6A40.93,40.93,0,0,1,275.6,49.85Z"/><circle class="cls-6" cx="252.72" cy="83.79" r="40.93"/><path class="cls-6" d="M58.57,30.93c.59-1,14.19-23.49,40.38-23.58,15.11,0,26.05,7.38,32.31,13.21"/><polygon class="cls-9" points="110.8 17.95 129.66 18.86 130.56 0 138.18 8.39 137.27 27.25 118.42 26.34 110.8 17.95"/><path class="cls-6" d="M159.76,30.93c.59-1,14.19-23.49,40.38-23.58,15.11,0,26.05,7.38,32.31,13.21"/><polygon class="cls-9" points="211.98 17.95 230.84 18.86 231.75 0 239.37 8.39 238.46 27.25 219.6 26.34 211.98 17.95"/></g></g></svg>