<svg xmlns="http://www.w3.org/2000/svg" xmlns:xlink="http://www.w3.org/1999/xlink" viewBox="0 0 264.04 264.3"><defs><style>.cls-1,.cls-2{fill:none;}.cls-2{stroke:#57e09b;stroke-width:2.16px;}.cls-3{fill:#57e09b;}.cls-4{fill:#13314d;}.cls-5{fill:url(#_10_lpi_30_);}</style><pattern id="_10_lpi_30_" data-name="10 lpi 30%" width="72" height="72" patternTransform="translate(14.18 -172.29) rotate(-45) scale(0.88)" patternUnits="userSpaceOnUse" viewBox="0 0 72 72"><rect class="cls-1" width="72" height="72"/><line class="cls-2" x1="71.75" y1="68.4" x2="144.25" y2="68.4"/><line class="cls-2" x1="71.75" y1="54" x2="144.25" y2="54"/><line class="cls-2" x1="71.75" y1="39.6" x2="144.25" y2="39.6"/><line class="cls-2" x1="71.75" y1="25.2" x2="144.25" y2="25.2"/><line class="cls-2" x1="71.75" y1="10.8" x2="144.25" y2="10.8"/><line class="cls-2" x1="71.75" y1="61.2" x2="144.25" y2="61.2"/><line class="cls-2" x1="71.75" y1="46.8" x2="144.25" y2="46.8"/><line class="cls-2" x1="71.75" y1="32.4" x2="144.25" y2="32.4"/><line class="cls-2" x1="71.75" y1="18" x2="144.25" y2="18"/><line class="cls-2" x1="71.75" y1="3.6" x2="144.25" y2="3.6"/><line class="cls-2" x1="-0.25" y1="68.4" x2="72.25" y2="68.4"/><line class="cls-2" x1="-0.25" y1="54" x2="72.25" y2="54"/><line class="cls-2" x1="-0.25" y1="39.6" x2="72.25" y2="39.6"/><line class="cls-2" x1="-0.25" y1="25.2" x2="72.25" y2="25.2"/><line class="cls-2" x1="-0.25" y1="10.8" x2="72.25" y2="10.8"/><line class="cls-2" x1="-0.25" y1="61.2" x2="72.25" y2="61.2"/><line class="cls-2" x1="-0.25" y1="46.8" x2="72.25" y2="46.8"/><line class="cls-2" x1="-0.25" y1="32.4" x2="72.25" y2="32.4"/><line class="cls-2" x1="-0.25" y1="18" x2="72.25" y2="18"/><line class="cls-2" x1="-0.25" y1="3.6" x2="72.25" y2="3.6"/><line class="cls-2" x1="-72.25" y1="68.4" x2="0.25" y2="68.4"/><line class="cls-2" x1="-72.25" y1="54" x2="0.25" y2="54"/><line class="cls-2" x1="-72.25" y1="39.6" x2="0.25" y2="39.6"/><line class="cls-2" x1="-72.25" y1="25.2" x2="0.25" y2="25.2"/><line class="cls-2" x1="-72.25" y1="10.8" x2="0.25" y2="10.8"/><line class="cls-2" x1="-72.25" y1="61.2" x2="0.25" y2="61.2"/><line class="cls-2" x1="-72.25" y1="46.8" x2="0.25" y2="46.8"/><line class="cls-2" x1="-72.25" y1="32.4" x2="0.25" y2="32.4"/><line class="cls-2" x1="-72.25" y1="18" x2="0.25" y2="18"/><line class="cls-2" x1="-72.25" y1="3.6" x2="0.25" y2="3.6"/></pattern></defs><title>Layer 6</title><g id="Layer_2" data-name="Layer 2"><g id="Layer_6" data-name="Layer 6"><path class="cls-3" d="M25.68,254.16a21,21,0,0,1-2.53-3.2,35.34,35.34,0,0,0-4.52-3.2,4.37,4.37,0,0,0,.22.43c.25.27.5.54.76.8A52.56,52.56,0,0,0,25.68,254.16Z"/><path class="cls-3" d="M263.74,51.92c-1,.77-2.06,1.48-3.13,2.15a53.39,53.39,0,0,0-5.36,5.49,45.59,45.59,0,0,1-13,29.71,46.05,46.05,0,0,1-42.1,12.15,11,11,0,0,0-9.26,2.87L145.74,150.1l-45.06,45.46a4.4,4.4,0,0,0-1.12,4.21,44.16,44.16,0,0,1-37.88,55.57,22.27,22.27,0,0,1-4,9A52.87,52.87,0,0,0,108.61,200l44.08-44.44h0l44.37-45.07a2.18,2.18,0,0,1,1.45-.44,53.84,53.84,0,0,0,65.36-57.38C263.85,52.38,263.79,52.15,263.74,51.92Z"/><path class="cls-3" d="M61.27,201l-15.91-4.2a3.51,3.51,0,0,0-3.46.94L30.31,209.42a3.55,3.55,0,0,0-.92,3.46l4.32,15.88a3.6,3.6,0,0,0,2.55,2.53l15.9,4.2a3.71,3.71,0,0,0,.93.12,3.52,3.52,0,0,0,2.53-1.06l11.6-11.68a3.59,3.59,0,0,0,.92-3.46l-4.32-15.88A3.6,3.6,0,0,0,61.27,201Z"/><path class="cls-4" d="M107.28,112.9,63.92,156.61a52.46,52.46,0,0,0-48.61,14.5c-23,23.18-17.75,56.91.3,74.88a53,53,0,0,0,74.9-.3A52.4,52.4,0,0,0,104.61,197l44.08-44.44h0l44.37-45.07a2.18,2.18,0,0,1,1.45-.44,53.84,53.84,0,0,0,65.36-57.38,7.29,7.29,0,0,0-4.62-6,7.75,7.75,0,0,0-7.94,1.57l-19.14,19.3L199.43,61l-4.09-28.69,19.49-19.66a7.25,7.25,0,0,0,1.78-7.54,7.63,7.63,0,0,0-6.55-5A55.81,55.81,0,0,0,167.26,16a53.29,53.29,0,0,0-14.5,49.43,1.71,1.71,0,0,1-.39,1.67ZM158.2,73.56c2.64-2.11,3.82-5.69,3.11-9.82A44.68,44.68,0,0,1,173.4,22.18,47.3,47.3,0,0,1,206.17,8.7h.3L189.14,26.16A8.21,8.21,0,0,0,187,32.38l3.93,30.25c0,3.15,2.46,5.93,6.43,6.87l31.05,3.75A7.92,7.92,0,0,0,234,71L251.33,53.5a45.74,45.74,0,0,1-13.11,32.77,46.05,46.05,0,0,1-42.1,12.15,11,11,0,0,0-9.26,2.87L141.74,147.1h0L96.68,192.56a4.4,4.4,0,0,0-1.12,4.21A43.81,43.81,0,0,1,84.3,239.55a44.29,44.29,0,0,1-62.55.25c-15.08-15-19.47-43.2-.25-62.57a43.82,43.82,0,0,1,42.67-11.61,4.39,4.39,0,0,0,4.21-1.15L113.46,119h0l0,0,.68-.69a0,0,0,0,0,0,0Z"/><path class="cls-5" d="M141.59,90.44,158.2,73.56c2.64-2.11,3.82-5.69,3.11-9.82A44.68,44.68,0,0,1,173.4,22.18,47.3,47.3,0,0,1,206.17,8.7h.3L189.14,26.16A8.21,8.21,0,0,0,187,32.38l3.93,30.25c0,3.15,2.46,5.93,6.43,6.87l31.05,3.75A7.92,7.92,0,0,0,234,71L251.33,53.5a45.74,45.74,0,0,1-13.11,32.77,46.05,46.05,0,0,1-42.1,12.15,11,11,0,0,0-9.26,2.87L141.74,147.1"/><path class="cls-4" d="M68.16,190l-19.34-5.11A4.28,4.28,0,0,0,44.61,186l-14.09,14.2a4.34,4.34,0,0,0-1.12,4.21l5.25,19.3a4.35,4.35,0,0,0,3.1,3.07l19.34,5.11a4.33,4.33,0,0,0,1.13.15,4.42,4.42,0,0,0,3.08-1.29l14.09-14.2a4.34,4.34,0,0,0,1.12-4.21l-5.26-19.3A4.35,4.35,0,0,0,68.16,190ZM56.88,222.85,42.41,219l-3.93-14.47L49,193.94l14.47,3.82,3.93,14.45Z"/><path class="cls-4" d="M97.7,157a4.36,4.36,0,0,0,6.19,6.13l53.59-54a4.36,4.36,0,0,0-6.19-6.14Z"/></g></g></svg>