<svg xmlns="http://www.w3.org/2000/svg" xmlns:xlink="http://www.w3.org/1999/xlink" viewBox="0 0 61.8 81.65"><defs><style>.cls-1,.cls-2{fill:none;}.cls-2,.cls-4{stroke:#57e09b;}.cls-2{stroke-width:2.16px;}.cls-3,.cls-4{fill:#fff;}.cls-4{stroke-miterlimit:10;}.cls-5{fill:#13314d;}.cls-6{fill:url(#_10_lpi_30_);}</style><pattern id="_10_lpi_30_" data-name="10 lpi 30%" width="72" height="72" patternTransform="matrix(0.14, -0.14, 0.14, 0.14, -27.9, 31.63)" patternUnits="userSpaceOnUse" viewBox="0 0 72 72"><rect class="cls-1" width="72" height="72"/><line class="cls-2" x1="71.75" y1="68.4" x2="144.25" y2="68.4"/><line class="cls-2" x1="71.75" y1="54" x2="144.25" y2="54"/><line class="cls-2" x1="71.75" y1="39.6" x2="144.25" y2="39.6"/><line class="cls-2" x1="71.75" y1="25.2" x2="144.25" y2="25.2"/><line class="cls-2" x1="71.75" y1="10.8" x2="144.25" y2="10.8"/><line class="cls-2" x1="71.75" y1="61.2" x2="144.25" y2="61.2"/><line class="cls-2" x1="71.75" y1="46.8" x2="144.25" y2="46.8"/><line class="cls-2" x1="71.75" y1="32.4" x2="144.25" y2="32.4"/><line class="cls-2" x1="71.75" y1="18" x2="144.25" y2="18"/><line class="cls-2" x1="71.75" y1="3.6" x2="144.25" y2="3.6"/><line class="cls-2" x1="-0.25" y1="68.4" x2="72.25" y2="68.4"/><line class="cls-2" x1="-0.25" y1="54" x2="72.25" y2="54"/><line class="cls-2" x1="-0.25" y1="39.6" x2="72.25" y2="39.6"/><line class="cls-2" x1="-0.25" y1="25.2" x2="72.25" y2="25.2"/><line class="cls-2" x1="-0.25" y1="10.8" x2="72.25" y2="10.8"/><line class="cls-2" x1="-0.25" y1="61.2" x2="72.25" y2="61.2"/><line class="cls-2" x1="-0.25" y1="46.8" x2="72.25" y2="46.8"/><line class="cls-2" x1="-0.25" y1="32.4" x2="72.25" y2="32.4"/><line class="cls-2" x1="-0.25" y1="18" x2="72.25" y2="18"/><line class="cls-2" x1="-0.25" y1="3.6" x2="72.25" y2="3.6"/><line class="cls-2" x1="-72.25" y1="68.4" x2="0.25" y2="68.4"/><line class="cls-2" x1="-72.25" y1="54" x2="0.25" y2="54"/><line class="cls-2" x1="-72.25" y1="39.6" x2="0.25" y2="39.6"/><line class="cls-2" x1="-72.25" y1="25.2" x2="0.25" y2="25.2"/><line class="cls-2" x1="-72.25" y1="10.8" x2="0.25" y2="10.8"/><line class="cls-2" x1="-72.25" y1="61.2" x2="0.25" y2="61.2"/><line class="cls-2" x1="-72.25" y1="46.8" x2="0.25" y2="46.8"/><line class="cls-2" x1="-72.25" y1="32.4" x2="0.25" y2="32.4"/><line class="cls-2" x1="-72.25" y1="18" x2="0.25" y2="18"/><line class="cls-2" x1="-72.25" y1="3.6" x2="0.25" y2="3.6"/></pattern></defs><title>Asset 9</title><g id="Layer_2" data-name="Layer 2"><g id="Layer_1-2" data-name="Layer 1"><polygon class="cls-3" points="1.15 0.33 60.65 0.33 60.65 70.71 51.1 79.96 1.75 79.29 1.15 0.33"/><path class="cls-4" d="M.5,81.15H51.83l9.47-9.46V.5H.5Zm51.57-2V71.93h7.22ZM1.75,1.75h58.3V70.67H50.82V79.9H1.75Z"/><path class="cls-5" d="M52.18,79.52V72.3h7.21ZM1.86,2.13H60.15V71.05H50.93v9.23H1.86ZM.61,81.53H51.94l9.46-9.47V.87H.61Z"/><rect class="cls-6" x="9.37" y="9.44" width="43.05" height="7.72"/><path class="cls-5" d="M52.43,9.44h-43v7.72H52.43ZM51.18,15.9H10.63V10.69H51.18Z"/><rect class="cls-5" x="10.01" y="55.21" width="41.92" height="1.25"/><rect class="cls-5" x="10.01" y="50.54" width="41.92" height="1.25"/><rect class="cls-5" x="10.01" y="41.2" width="41.92" height="1.25"/><rect class="cls-5" x="10.01" y="45.87" width="41.92" height="1.25"/><rect class="cls-5" x="10.01" y="36.53" width="41.92" height="1.25"/><rect class="cls-5" x="10.01" y="31.86" width="42" height="1.25"/><rect class="cls-5" x="10.01" y="27.19" width="42" height="1.25"/><rect class="cls-5" x="10.01" y="22.51" width="42" height="1.25"/></g></g></svg>